# xmcd
#
# Track frame offsets: 
#        150
#        10445
#        25845
#        41810
#        59922
#        78182
#        88917
#        109195
#        120260
#        129402
#        145627
#        159795
#        176410
#        189362
#        211627
#        224367
#
# Disc length: 3305 seconds
#
# Revision: 0
# Processed by: cddbd v1.4PL0 Copyright (c) Steve Scherf et al.
# Submitted via: ExactAudioCopy v0.90b4
#
DISCID=d10ce710
DTITLE=Leslie Avril - Live
DYEAR=1900
DGENRE=Country
TTITLE0=Rockabilly Woman
TTITLE1=Johnny Cash Song
TTITLE2=Cowgirl's Heart
TTITLE3=Desert Sky
TTITLE4=Carnival Of Souls
TTITLE5=Superwoman
TTITLE6=Billy Came Back
TTITLE7=Break It To Me Gently
TTITLE8=Sweet Nuthin's
TTITLE9=He Thinks I Still Care
TTITLE10=Tangled Up In Love
TTITLE11=Firewoman
TTITLE12=Lay Your Burdens Down
TTITLE13=WOMAN
TTITLE14=Trashy Woman
TTITLE15=Guilty
EXTD=
EXTT0=
EXTT1=
EXTT2=
EXTT3=
EXTT4=
EXTT5=
EXTT6=
EXTT7=
EXTT8=
EXTT9=
EXTT10=
EXTT11=
EXTT12=
EXTT13=
EXTT14=
EXTT15=
PLAYORDER=
